# xmcd CD database file
#
# Track frame offsets:
#	150
#	16235
#	44380
#	50142
#	74225
#	80660
#	108155
#	149780
#	167470
#
# Disc length: 2471 seconds
#
# Revision: 0
# Processed by: cddbd v1.5PL3 Copyright (c) Steve Scherf et al.
# Submitted via: CDex 1.51
#
DISCID=8309a509
DTITLE=Björkenheim, Raol - Apocalypso
DYEAR=2001
DGENRE=Jazz
TTITLE0=Oracle
TTITLE1=Sages
TTITLE2=Rain
TTITLE3=Surf Dance
TTITLE4=Lament
TTITLE5=Circles
TTITLE6=Apocalypso
TTITLE7=Spirits
TTITLE8=Last Oracle
EXTD=YEAR: 2001
EXTT0=
EXTT1=
EXTT2=
EXTT3=
EXTT4=
EXTT5=
EXTT6=
EXTT7=
EXTT8=
PLAYORDER=
